<svg xmlns="http://www.w3.org/2000/svg" shape-rendering="crispEdges" viewBox="0 -.5 256 256"><path stroke="#262b44" d="M32 36h56m-56 1h56m-56 1h56m-56 1h56m-60 1h68m36 0h4M28 41h68m36 0h4M28 42h68m36 0h4M28 43h68m36 0h4m-72 1h36m24 0h12m-72 1h36m24 0h12m-72 1h36m24 0h12m-72 1h36m24 0h12m-52 1h20m24 0h8m-52 1h20m24 0h8m-52 1h20m24 0h8m-52 1h20m24 0h8M32 52h4m56 0h16m20 0h12M32 53h4m56 0h16m20 0h12M32 54h4m56 0h16m20 0h12M32 55h4m56 0h16m20 0h12M32 56h4m64 0h8m20 0h12M32 57h4m64 0h8m20 0h12M32 58h4m64 0h8m20 0h12M32 59h4m64 0h8m20 0h12M32 60h4m68 0h8m20 0h8M32 61h4m68 0h8m20 0h8M32 62h4m68 0h8m20 0h8M32 63h4m68 0h8m20 0h8M32 64h4m12 0h4m56 0h4m20 0h12M32 65h4m12 0h4m56 0h4m20 0h12M32 66h4m12 0h4m56 0h4m20 0h12M32 67h4m12 0h4m56 0h4m20 0h12M32 68h4m12 0h4m56 0h4m20 0h12M32 69h4m12 0h4m56 0h4m20 0h12M32 70h4m12 0h4m56 0h4m20 0h12M32 71h4m12 0h4m56 0h4m20 0h12M32 72h4m12 0h4m56 0h8m16 0h12M32 73h4m12 0h4m56 0h8m16 0h12M32 74h4m12 0h4m56 0h8m16 0h12M32 75h4m12 0h4m56 0h8m16 0h12M32 76h4m12 0h4m60 0h4m20 0h8M32 77h4m12 0h4m60 0h4m20 0h8M32 78h4m12 0h4m60 0h4m20 0h8M32 79h4m12 0h4m60 0h4m20 0h8M28 80h8m12 0h4m60 0h4m20 0h12M28 81h8m12 0h4m60 0h4m20 0h12M28 82h8m12 0h4m60 0h4m20 0h12M28 83h8m12 0h4m60 0h4m20 0h12M28 84h8m12 0h4m60 0h8m16 0h12M28 85h8m12 0h4m60 0h8m16 0h12M28 86h8m12 0h4m60 0h8m16 0h12M28 87h8m12 0h4m60 0h8m16 0h12M28 88h4m84 0h4m16 0h12M28 89h4m84 0h4m16 0h12M28 90h4m84 0h4m16 0h12M28 91h4m84 0h4m16 0h12M28 92h4m84 0h4m20 0h8M28 93h4m84 0h4m20 0h8M28 94h4m84 0h4m20 0h8M28 95h4m84 0h4m20 0h8M28 96h4m84 0h8m16 0h12M28 97h4m84 0h8m16 0h12M28 98h4m84 0h8m16 0h12M28 99h4m84 0h8m16 0h12m-124 1h4m88 0h4m16 0h12m-124 1h4m88 0h4m16 0h12m-124 1h4m88 0h4m16 0h12m-124 1h4m88 0h4m16 0h12m-124 1h4m68 0h4m16 0h4m16 0h12m-124 1h4m68 0h4m16 0h4m16 0h12m-124 1h4m68 0h4m16 0h4m16 0h12m-124 1h4m68 0h4m16 0h4m16 0h12m-124 1h4m12 0h4m48 0h8m8 0h4m4 0h8m16 0h8m-124 1h4m12 0h4m48 0h8m8 0h4m4 0h8m16 0h8m-124 1h4m12 0h4m48 0h8m8 0h4m4 0h8m16 0h8m-124 1h4m12 0h4m48 0h8m8 0h4m4 0h8m16 0h8m-124 1h4m12 0h4m44 0h8m4 0h12m8 0h4m16 0h12m-128 1h4m12 0h4m44 0h8m4 0h12m8 0h4m16 0h12m-128 1h4m12 0h4m44 0h8m4 0h12m8 0h4m16 0h12m-128 1h4m12 0h4m44 0h8m4 0h12m8 0h4m16 0h12m-128 1h4m12 0h4m4 0h4m56 0h4m8 0h4m16 0h12m-128 1h4m12 0h4m4 0h4m56 0h4m8 0h4m16 0h12m-128 1h4m12 0h4m4 0h4m56 0h4m8 0h4m16 0h12m-128 1h4m12 0h4m4 0h4m56 0h4m8 0h4m16 0h12m-128 1h4m12 0h4m4 0h4m72 0h4m12 0h12m-128 1h4m12 0h4m4 0h4m72 0h4m12 0h12m-128 1h4m12 0h4m4 0h4m72 0h4m12 0h12m-128 1h4m12 0h4m4 0h4m72 0h4m12 0h12m-124 1h24m92 0h8m-124 1h24m92 0h8m-124 1h24m92 0h8m-124 1h24m92 0h8m-108 1h12m88 0h12m-112 1h12m88 0h12m-112 1h12m88 0h12m-112 1h12m88 0h12m-108 1h36m60 0h12m-108 1h36m60 0h12m-108 1h36m60 0h12m-108 1h36m60 0h12m-92 1h24m56 0h12m-92 1h24m56 0h12m-92 1h24m56 0h12m-92 1h24m56 0h12m-76 1h12m16 0h4m36 0h8m-76 1h12m16 0h4m36 0h8m-76 1h12m16 0h4m36 0h8m-76 1h12m16 0h4m36 0h8m-72 1h8m12 0h8m36 0h8m76 0h8m-156 1h8m12 0h8m36 0h8m76 0h8m-156 1h8m12 0h8m36 0h8m76 0h8m-156 1h8m12 0h8m36 0h8m76 0h8m-156 1h24m40 0h12m68 0h20m-164 1h24m40 0h12m68 0h20m-164 1h24m40 0h12m68 0h20m-164 1h24m40 0h12m68 0h20m-160 1h16m48 0h8m68 0h4m8 0h4m-156 1h16m48 0h8m68 0h4m8 0h4m-156 1h16m48 0h8m68 0h4m8 0h4m-156 1h16m48 0h8m68 0h4m8 0h4m-92 1h8m-8 1h8m-8 1h8m-8 1h8m-8 1h12m72 0h8m-92 1h12m72 0h8m-92 1h12m72 0h8m-92 1h12m72 0h8m-88 1h8m68 0h20m-96 1h8m68 0h20m-96 1h8m68 0h20m-96 1h8m68 0h20m-96 1h8m68 0h4m8 0h4m-92 1h8m68 0h4m8 0h4m-92 1h8m68 0h4m8 0h4m-92 1h8m68 0h4m8 0h4m-92 1h12m-12 1h12m-12 1h12m-12 1h12m-44 1h20m16 0h8m-44 1h20m16 0h8m-44 1h20m16 0h8m-44 1h20m16 0h8m-152 1h16m88 0h28m12 0h8m-152 1h16m88 0h28m12 0h8m-152 1h16m88 0h28m12 0h8m-152 1h16m88 0h28m12 0h8m-156 1h24m80 0h12m12 0h12m12 0h4m-156 1h24m80 0h12m12 0h12m12 0h4m-156 1h24m80 0h12m12 0h12m12 0h4m-156 1h24m80 0h12m12 0h12m12 0h4m-160 1h12m8 0h12m76 0h8m20 0h8m-144 1h12m8 0h12m76 0h8m20 0h8m-144 1h12m8 0h12m76 0h8m20 0h8m-144 1h12m8 0h12m76 0h8m20 0h8m-144 1h8m16 0h8m76 0h8m20 0h8m-144 1h8m16 0h8m76 0h8m20 0h8m-144 1h8m16 0h8m76 0h8m20 0h8m-144 1h8m16 0h8m76 0h8m20 0h8m-144 1h8m16 0h8m76 0h8m20 0h8m-144 1h8m16 0h8m76 0h8m20 0h8m-144 1h8m16 0h8m76 0h8m20 0h8m-144 1h8m16 0h8m76 0h8m20 0h8m-144 1h12m8 0h12m76 0h12m12 0h12m-144 1h12m8 0h12m76 0h12m12 0h12m-144 1h12m8 0h12m76 0h12m12 0h12m-144 1h12m8 0h12m76 0h12m12 0h12m-140 1h24m84 0h28m-136 1h24m84 0h28m-136 1h24m84 0h28m-136 1h24m84 0h28m-132 1h16m92 0h20m-128 1h16m92 0h20m-128 1h16m92 0h20m-128 1h16m92 0h20"/><path stroke="#181425" d="M28 44h36m-36 1h36m-36 1h36m-36 1h36m-36 1h56m36 0h8M28 49h56m36 0h8M28 50h56m36 0h8M28 51h56m36 0h8M28 52h4m8 0h52m28 0h8M28 53h4m8 0h52m28 0h8M28 54h4m8 0h52m28 0h8M28 55h4m8 0h52m28 0h8M28 56h4m12 0h8m36 0h12m20 0h8M28 57h4m12 0h8m36 0h12m20 0h8M28 58h4m12 0h8m36 0h12m20 0h8M28 59h4m12 0h8m36 0h12m20 0h8M28 60h4m12 0h8m44 0h8m16 0h12M28 61h4m12 0h8m44 0h8m16 0h12M28 62h4m12 0h8m44 0h8m16 0h12M28 63h4m12 0h8m44 0h8m16 0h12M28 64h4m12 0h4m52 0h8m16 0h8M28 65h4m12 0h4m52 0h8m16 0h8M28 66h4m12 0h4m52 0h8m16 0h8M28 67h4m12 0h4m52 0h8m16 0h8M28 68h4m12 0h4m56 0h4m16 0h8M28 69h4m12 0h4m56 0h4m16 0h8M28 70h4m12 0h4m56 0h4m16 0h8M28 71h4m12 0h4m56 0h4m16 0h8M28 72h4m12 0h4m56 0h4m16 0h8M28 73h4m12 0h4m56 0h4m16 0h8M28 74h4m12 0h4m56 0h4m16 0h8M28 75h4m12 0h4m56 0h4m16 0h8M28 76h4m12 0h4m60 0h4m12 0h12M28 77h4m12 0h4m60 0h4m12 0h12M28 78h4m12 0h4m60 0h4m12 0h12M28 79h4m12 0h4m60 0h4m12 0h12M24 80h4m16 0h4m60 0h4m16 0h8M24 81h4m16 0h4m60 0h4m16 0h8M24 82h4m16 0h4m60 0h4m16 0h8M24 83h4m16 0h4m60 0h4m16 0h8M24 84h4m16 0h4m60 0h4m16 0h8M24 85h4m16 0h4m60 0h4m16 0h8M24 86h4m16 0h4m60 0h4m16 0h8M24 87h4m16 0h4m60 0h4m16 0h8M24 88h4m16 0h8m60 0h4m12 0h8M24 89h4m16 0h8m60 0h4m12 0h8M24 90h4m16 0h8m60 0h4m12 0h8M24 91h4m16 0h8m60 0h4m12 0h8M24 92h4m16 0h8m60 0h4m12 0h12M24 93h4m16 0h8m60 0h4m12 0h12M24 94h4m16 0h8m60 0h4m12 0h12M24 95h4m16 0h8m60 0h4m12 0h12M24 96h4m12 0h12m60 0h4m16 0h8M24 97h4m12 0h12m60 0h4m16 0h8M24 98h4m12 0h12m60 0h4m16 0h8M24 99h4m12 0h12m60 0h4m16 0h8m-116 1h4m12 0h12m64 0h4m12 0h8m-116 1h4m12 0h12m64 0h4m12 0h8m-116 1h4m12 0h12m64 0h4m12 0h8m-116 1h4m12 0h12m64 0h4m12 0h8m-116 1h4m12 0h8m68 0h4m12 0h8m-116 1h4m12 0h8m68 0h4m12 0h8m-116 1h4m12 0h8m68 0h4m12 0h8m-116 1h4m12 0h8m68 0h4m12 0h8m-116 1h4m12 0h4m72 0h4m12 0h12m-120 1h4m12 0h4m72 0h4m12 0h12m-120 1h4m12 0h4m72 0h4m12 0h12m-120 1h4m12 0h4m72 0h4m12 0h12m-120 1h4m12 0h4m56 0h4m12 0h8m12 0h8m-120 1h4m12 0h4m56 0h4m12 0h8m12 0h8m-120 1h4m12 0h4m56 0h4m12 0h8m12 0h8m-120 1h4m12 0h4m56 0h4m12 0h8m12 0h8m-120 1h4m12 0h4m56 0h12m4 0h8m12 0h8m-120 1h4m12 0h4m56 0h12m4 0h8m12 0h8m-120 1h4m12 0h4m56 0h12m4 0h8m12 0h8m-120 1h4m12 0h4m56 0h12m4 0h8m12 0h8m-120 1h4m12 0h4m64 0h20m8 0h8m-120 1h4m12 0h4m64 0h20m8 0h8m-120 1h4m12 0h4m64 0h20m8 0h8m-120 1h4m12 0h4m64 0h20m8 0h8m-120 1h8m80 0h20m4 0h12m-124 1h8m80 0h20m4 0h12m-124 1h8m80 0h20m4 0h12m-124 1h8m80 0h20m4 0h12m-120 1h20m68 0h16m8 0h8m-120 1h20m68 0h16m8 0h8m-120 1h20m68 0h16m8 0h8m-120 1h20m68 0h16m8 0h8m-108 1h12m64 0h20m4 0h8m-108 1h12m64 0h20m4 0h8m-108 1h12m64 0h20m4 0h8m-108 1h12m64 0h20m4 0h8m-96 1h16m48 0h20m4 0h8m-96 1h16m48 0h20m4 0h8m-96 1h16m48 0h20m4 0h8m-96 1h16m48 0h20m4 0h8m-88 1h24m32 0h20m4 0h12m-92 1h24m32 0h20m4 0h12m-92 1h24m32 0h20m4 0h12m-92 1h24m32 0h20m4 0h12m-84 1h20m28 0h24m4 0h8m-84 1h20m28 0h24m4 0h8m-84 1h20m28 0h24m4 0h8m-84 1h20m28 0h24m4 0h8m-76 1h12m24 0h40m-76 1h12m24 0h40m-76 1h12m24 0h40m-76 1h12m24 0h40m-72 1h12m16 0h48m80 0h8m-164 1h12m16 0h48m80 0h8m-164 1h12m16 0h48m80 0h8m-164 1h12m16 0h48m80 0h8m-160 1h40m24 0h8m-72 1h40m24 0h8m-72 1h40m24 0h8m-72 1h40m24 0h8m-68 1h28m32 0h8m-68 1h28m32 0h8m-68 1h28m32 0h8m-68 1h28m32 0h8m-68 1h24m40 0h8m-72 1h24m40 0h8m-72 1h24m40 0h8m-72 1h24m40 0h8M8 168h4m80 0h16m20 0h20m4 0h8m80 0h8M8 169h4m80 0h16m20 0h20m4 0h8m80 0h8M8 170h4m80 0h16m20 0h20m4 0h8m80 0h8M8 171h4m80 0h16m20 0h20m4 0h8m80 0h8M8 172h8m108 0h28m4 0h4M8 173h8m108 0h28m4 0h4M8 174h8m108 0h28m4 0h4M8 175h8m108 0h28m4 0h4M8 176h20m92 0h8m20 0h16M8 177h20m92 0h8m20 0h16M8 178h20m92 0h8m20 0h16M8 179h20m92 0h8m20 0h16m-152 1h8m96 0h8m28 0h12m-152 1h8m96 0h8m28 0h12m-152 1h8m96 0h8m28 0h12m-152 1h8m96 0h8m28 0h12m-48 1h4m36 0h12m4 0h4m-60 1h4m36 0h12m4 0h4m-60 1h4m36 0h12m4 0h4m-60 1h4m36 0h12m4 0h4m-60 1h4m36 0h20m-60 1h4m36 0h20m-60 1h4m36 0h20m-60 1h4m36 0h20m-64 1h8m36 0h20m-64 1h8m36 0h20m-64 1h8m36 0h20m-64 1h8m36 0h20m-132 1h4m64 0h8m36 0h8m-120 1h4m64 0h8m36 0h8m-120 1h4m64 0h8m36 0h8m-120 1h4m64 0h8m36 0h8"/><path stroke="#3a4466" d="M52 92h4m-4 1h4m-4 1h4m-4 1h4m-4 1h4m-4 1h4m-4 1h4m-4 1h4m-4 1h4m-4 1h4m-4 1h4m-4 1h4m-4 1h4m-4 1h4m-4 1h4m-4 1h4m-4 1h4m-4 1h4m-4 1h4m-4 1h4m-4 1h4m-4 1h4m-4 1h4m-4 1h4m0 1h4m-4 1h4m-4 1h4m-4 1h4m-4 1h4m-4 1h4m-4 1h4m-4 1h4m-4 1h8m-8 1h8m-8 1h8m-8 1h8m-4 1h20m-20 1h20m-20 1h20m-20 1h20"/><path stroke="#5a6988" d="M56 100h4m-4 1h4m-4 1h4m-4 1h4m-4 1h4m-4 1h4m-4 1h4m-4 1h4m-4 1h4m-4 1h4m-4 1h4m-4 1h4m-4 1h4m-4 1h4m-4 1h4m-4 1h4m0 1h4m-4 1h4m-4 1h4m-4 1h4m-4 1h4m-4 1h4m-4 1h4m-4 1h4m0 1h20m-20 1h20m-20 1h20m-20 1h20"/><path stroke="#e8b796" d="M208 116h8m-8 1h8m-8 1h8m-8 1h8m-20 1h24m-24 1h24m-24 1h24m-24 1h24m-36 1h40m-40 1h40m-40 1h40m-40 1h40m-52 1h44m-44 1h44m-44 1h44m-44 1h44m-52 1h40m-40 1h40m-40 1h40m-40 1h40m-40 1h28m-28 1h28m-28 1h28m-28 1h28m-24 1h12m-12 1h12m-12 1h12m-12 1h12"/><path stroke="#fee761" d="M20 128h8m-8 1h8m-8 1h8m-8 1h8m-4 1h16m-16 1h16m-16 1h16m-16 1h16m-12 1h24m-24 1h24m-24 1h24m-24 1h24m-20 1h28m-28 1h28m-28 1h28m-28 1h28m-20 1h28m-28 1h28m-28 1h28m-28 1h28m-20 1h28m-28 1h28m-28 1h28m-28 1h28m-20 1h24m-24 1h24m-24 1h24m-24 1h24m-16 1h20m40 0h24m-84 1h20m40 0h24m-84 1h20m40 0h24m-84 1h20m40 0h24m-76 1h16m28 0h8m12 0h12m-76 1h16m28 0h8m12 0h12m-76 1h16m28 0h8m12 0h12m-76 1h16m28 0h8m12 0h12m-68 1h8m24 0h4m28 0h8m-72 1h8m24 0h4m28 0h8m-72 1h8m24 0h4m28 0h8m-72 1h8m24 0h4m28 0h8m-68 1h8m16 0h4m36 0h4m-68 1h8m16 0h4m36 0h4m-68 1h8m16 0h4m36 0h4m-68 1h8m16 0h4m36 0h4m-64 1h20m44 0h4m-68 1h20m44 0h4m-68 1h20m44 0h4m-68 1h20m44 0h4"/><path stroke="#c28569" d="M216 128h12m-12 1h12m-12 1h12m-12 1h12m-68 1h4m40 0h24m-68 1h4m40 0h24m-68 1h4m40 0h24m-68 1h4m40 0h24m-68 1h4m28 0h36m-68 1h4m28 0h36m-68 1h4m28 0h36m-68 1h4m28 0h36m-68 1h8m12 0h52m-72 1h8m12 0h52m-72 1h8m12 0h52m-72 1h8m12 0h52m-72 1h56m8 0h8m-72 1h56m8 0h8m-72 1h56m8 0h8m-72 1h56m8 0h8m-64 1h32m8 0h4m4 0h4m4 0h8m-64 1h32m8 0h4m4 0h4m4 0h8m-64 1h32m8 0h4m4 0h4m4 0h8m-64 1h32m8 0h4m4 0h4m4 0h8m-60 1h12m8 0h4m4 0h4m4 0h12m4 0h8m-60 1h12m8 0h4m4 0h4m4 0h12m4 0h8m-60 1h12m8 0h4m4 0h4m4 0h12m4 0h8m-60 1h12m8 0h4m4 0h4m4 0h12m4 0h8m-60 1h8m4 0h4m4 0h12m4 0h8m4 0h16m-64 1h8m4 0h4m4 0h12m4 0h8m4 0h16m-64 1h8m4 0h4m4 0h12m4 0h8m4 0h16m-64 1h8m4 0h4m4 0h12m4 0h8m4 0h16m-60 1h12m4 0h8m4 0h12m4 0h4m4 0h8m-60 1h12m4 0h8m4 0h12m4 0h4m4 0h8m-60 1h12m4 0h8m4 0h12m4 0h4m4 0h8m-60 1h12m4 0h8m4 0h12m4 0h4m4 0h8m-60 1h8m4 0h12m4 0h4m4 0h4m8 0h12m-60 1h8m4 0h12m4 0h4m4 0h4m8 0h12m-60 1h8m4 0h12m4 0h4m4 0h4m8 0h12m-60 1h8m4 0h12m4 0h4m4 0h4m8 0h12m-56 1h4m4 0h4m4 0h4m8 0h28m-56 1h4m4 0h4m4 0h4m8 0h28m-56 1h4m4 0h4m4 0h4m8 0h28m-56 1h4m4 0h4m4 0h4m8 0h28m-56 1h4m8 0h48m-60 1h4m8 0h48m-60 1h4m8 0h48m-60 1h4m8 0h48m-56 1h52m-52 1h52m-52 1h52m-52 1h52m-52 1h44m-44 1h44m-44 1h44m-44 1h44m-40 1h28m-28 1h28m-28 1h28m-28 1h28m-20 1h12m-12 1h12m-12 1h12m-12 1h12"/><path stroke="#feae34" d="M16 132h8m-8 1h8m-8 1h8m-8 1h8m-12 1h16m-16 1h16m-16 1h16m-16 1h16m-16 1h20m-20 1h20m-20 1h20m-20 1h20m-20 1h28m-28 1h28m-28 1h28m-28 1h28m-24 1h32m-32 1h32m-32 1h32m-32 1h32m-32 1h40m-40 1h40m-40 1h40m-40 1h40m-36 1h44m-44 1h44m-44 1h44m-44 1h44m-40 1h48m52 0h12m-112 1h48m52 0h12m-112 1h48m52 0h12m-112 1h48m52 0h12m-108 1h52m36 0h28m-116 1h52m36 0h28m-116 1h52m36 0h28m-116 1h52m36 0h28m-112 1h52m28 0h16m-96 1h52m28 0h16m-96 1h52m28 0h16m-96 1h52m28 0h16m-88 1h48m20 0h16m-84 1h48m20 0h16m-84 1h48m20 0h16m-84 1h48m20 0h16m-76 1h68m-68 1h68m-68 1h68m-68 1h68m-60 1h56m-56 1h56m-56 1h56m-56 1h56m-48 1h48m-48 1h48m-48 1h48m-48 1h48m-40 1h36m-36 1h36m-36 1h36m-36 1h36m-28 1h24m-24 1h24m-24 1h24m-24 1h24"/><path stroke="#f77622" d="M8 144h4m-4 1h4m-4 1h4m-4 1h4m-4 1h8m-8 1h8m-8 1h8m-8 1h8m-8 1h8m-8 1h8m-8 1h8m-8 1h8m-8 1h12m-12 1h12m-12 1h12m-12 1h12m-12 1h16m-16 1h16m-16 1h16m-16 1h16m-16 1h20m-20 1h20m-20 1h20m-20 1h20m-16 1h20m-20 1h20m-20 1h20m-20 1h20m-16 1h24m-24 1h24m-24 1h24m-24 1h24m-12 1h20m68 0h4m-92 1h20m68 0h4m-92 1h20m68 0h4m-92 1h20m68 0h4m-84 1h20m56 0h4m-80 1h20m56 0h4m-80 1h20m56 0h4m-80 1h20m56 0h4m-76 1h24m48 0h4m-76 1h24m48 0h4m-76 1h24m48 0h4m-76 1h24m48 0h4m-72 1h28m36 0h8m-72 1h28m36 0h8m-72 1h28m36 0h8m-72 1h28m36 0h8m-72 1h36m24 0h8m-68 1h36m24 0h8m-68 1h36m24 0h8m-68 1h36m24 0h8m-64 1h64m-64 1h64m-64 1h64m-64 1h64m-64 1h64m-64 1h64m-64 1h64m-64 1h64"/><path stroke="#ffffff" d="M216 144h8m-8 1h8m-8 1h8m-8 1h8m-24 1h8m4 0h4m4 0h4m-24 1h8m4 0h4m4 0h4m-24 1h8m4 0h4m4 0h4m-24 1h8m4 0h4m4 0h4m-40 1h8m4 0h4m4 0h4m12 0h4m-40 1h8m4 0h4m4 0h4m12 0h4m-40 1h8m4 0h4m4 0h4m12 0h4m-40 1h8m4 0h4m4 0h4m12 0h4m-44 1h4m4 0h4m12 0h4m8 0h4m-40 1h4m4 0h4m12 0h4m8 0h4m-40 1h4m4 0h4m12 0h4m8 0h4m-40 1h4m4 0h4m12 0h4m8 0h4m-32 1h4m8 0h4m12 0h4m4 0h4m-40 1h4m8 0h4m12 0h4m4 0h4m-40 1h4m8 0h4m12 0h4m4 0h4m-40 1h4m8 0h4m12 0h4m4 0h4m-44 1h4m12 0h4m4 0h4m4 0h8m-40 1h4m12 0h4m4 0h4m4 0h8m-40 1h4m12 0h4m4 0h4m4 0h8m-40 1h4m12 0h4m4 0h4m4 0h8m-40 1h4m4 0h4m4 0h8m-24 1h4m4 0h4m4 0h8m-24 1h4m4 0h4m4 0h8m-24 1h4m4 0h4m4 0h8m-24 1h8m-8 1h8m-8 1h8m-8 1h8"/><path stroke="#b86f50" d="M164 148h4m-4 1h4m-4 1h4m-4 1h4m-4 1h8m-8 1h8m-8 1h8m-8 1h8m-8 1h8m-8 1h8m-8 1h8m-8 1h8m-4 1h8m-8 1h8m-8 1h8m-8 1h8m-8 1h8m-8 1h8m-8 1h8m-8 1h8m-8 1h12m-12 1h12m-12 1h12m-12 1h12m-8 1h8m-8 1h8m-8 1h8m-8 1h8m-8 1h12m52 0h4m-68 1h12m52 0h4m-68 1h12m52 0h4m-68 1h12m52 0h4m-68 1h12m44 0h12m-68 1h12m44 0h12m-68 1h12m44 0h12m-68 1h12m44 0h12m-64 1h12m28 0h12m-52 1h12m28 0h12m-52 1h12m28 0h12m-52 1h12m28 0h12m-52 1h20m12 0h8m-40 1h20m12 0h8m-40 1h20m12 0h8m-40 1h20m12 0h8m-40 1h28m-28 1h28m-28 1h28m-28 1h28m-24 1h12m-12 1h12m-12 1h12m-12 1h12"/><path stroke="#c0cbdc" d="M132 184h12m-12 1h12m-12 1h12m-12 1h12m-120 1h8m100 0h16m-124 1h8m100 0h16m-124 1h8m100 0h16m-124 1h8m100 0h16m-124 1h12m96 0h16m-124 1h12m96 0h16m-124 1h12m96 0h16m-124 1h12m96 0h16m-124 1h12m100 0h12m-124 1h12m100 0h12m-124 1h12m100 0h12m-124 1h12m100 0h12"/><path stroke="#8b9bb4" d="M128 188h4m-4 1h4m-4 1h4m-4 1h4m-112 1h4m104 0h4m-112 1h4m104 0h4m-112 1h4m104 0h4m-112 1h4m104 0h4m-112 1h4m104 0h8m-116 1h4m104 0h8m-116 1h4m104 0h8m-116 1h4m104 0h8m-112 1h8m100 0h12m-120 1h8m100 0h12m-120 1h8m100 0h12m-120 1h8m100 0h12"/></svg>